<svg width="124" height="124" viewBox="0 0 124 124" fill="none" xmlns="http://www.w3.org/2000/svg">
<path d="M61.9618 41.3079C60.5923 41.3079 59.279 41.8519 58.3106 42.8202C57.3423 43.7886 56.7983 45.1019 56.7983 46.4713V103.27C56.7983 104.639 57.3423 105.952 58.3106 106.921C59.279 107.889 60.5923 108.433 61.9618 108.433C63.3312 108.433 64.6446 107.889 65.6129 106.921C66.5812 105.952 67.1252 104.639 67.1252 103.27V46.4713C67.1252 45.1019 66.5812 43.7886 65.6129 42.8202C64.6446 41.8519 63.3312 41.3079 61.9618 41.3079Z" fill="#FFE985"/>
<path d="M98.1061 20.6539C96.7367 20.6539 95.4233 21.1979 94.455 22.1663C93.4866 23.1346 92.9426 24.448 92.9426 25.8174V103.27C92.9426 104.639 93.4866 105.952 94.455 106.921C95.4233 107.889 96.7367 108.433 98.1061 108.433C99.4755 108.433 100.789 107.889 101.757 106.921C102.726 105.952 103.27 104.639 103.27 103.27V25.8174C103.27 24.448 102.726 23.1346 101.757 22.1663C100.789 21.1979 99.4755 20.6539 98.1061 20.6539Z" fill="#FFE985"/>
<path d="M25.8174 61.9618C24.4479 61.9618 23.1346 62.5058 22.1662 63.4741C21.1979 64.4425 20.6539 65.7558 20.6539 67.1253V103.27C20.6539 104.639 21.1979 105.952 22.1662 106.921C23.1346 107.889 24.4479 108.433 25.8174 108.433C27.1868 108.433 28.5002 107.889 29.4685 106.921C30.4369 105.952 30.9809 104.639 30.9809 103.27V67.1253C30.9809 65.7558 30.4369 64.4425 29.4685 63.4741C28.5002 62.5058 27.1868 61.9618 25.8174 61.9618Z" fill="#FFE985"/>
</svg>
