<svg width="382" height="382" viewBox="0 0 382 382" fill="none" xmlns="http://www.w3.org/2000/svg">
<path d="M286.376 47.7294H95.4588C82.8001 47.7294 70.66 52.758 61.709 61.709C52.758 70.66 47.7294 82.8001 47.7294 95.4588V286.376C47.7294 299.035 52.758 311.175 61.709 320.126C70.66 329.077 82.8001 334.106 95.4588 334.106H286.376C299.035 334.106 311.175 329.077 320.126 320.126C329.077 311.175 334.106 299.035 334.106 286.376V95.4588C334.106 82.8001 329.077 70.66 320.126 61.709C311.175 52.758 299.035 47.7294 286.376 47.7294ZM190.918 95.4588C194.064 95.4588 197.14 96.3918 199.757 98.14C202.373 99.8882 204.412 102.373 205.616 105.28C206.82 108.187 207.136 111.386 206.522 114.472C205.908 117.559 204.392 120.393 202.167 122.618C199.942 124.843 197.108 126.359 194.021 126.973C190.935 127.587 187.736 127.271 184.829 126.067C181.922 124.863 179.437 122.824 177.689 120.208C175.941 117.591 175.008 114.515 175.008 111.369C175.008 107.149 176.684 103.102 179.668 100.119C182.651 97.135 186.698 95.4588 190.918 95.4588V95.4588ZM127.278 95.4588C130.425 95.4588 133.501 96.3918 136.117 98.14C138.734 99.8882 140.773 102.373 141.977 105.28C143.181 108.187 143.496 111.386 142.882 114.472C142.269 117.559 140.753 120.393 138.528 122.618C136.303 124.843 133.468 126.359 130.382 126.973C127.296 127.587 124.097 127.271 121.19 126.067C118.283 124.863 115.798 122.824 114.05 120.208C112.302 117.591 111.369 114.515 111.369 111.369C111.369 107.149 113.045 103.102 116.028 100.119C119.012 97.135 123.059 95.4588 127.278 95.4588V95.4588ZM302.286 286.376C302.286 290.596 300.61 294.643 297.626 297.626C294.643 300.61 290.596 302.286 286.376 302.286H95.4588C91.2392 302.286 87.1925 300.61 84.2088 297.626C81.2252 294.643 79.549 290.596 79.549 286.376V175.008H302.286V286.376Z" fill="#FFE985"/>
</svg>
