<svg width="111" height="111" viewBox="0 0 111 111" fill="none" xmlns="http://www.w3.org/2000/svg">
<path d="M87.3485 91.9459H22.9865C21.7672 91.9459 20.5978 92.4303 19.7357 93.2924C18.8735 94.1546 18.3892 95.3239 18.3892 96.5432C18.3892 97.7625 18.8735 98.9318 19.7357 99.794C20.5978 100.656 21.7672 101.141 22.9865 101.141H87.3485C88.5678 101.141 89.7371 100.656 90.5993 99.794C91.4614 98.9318 91.9458 97.7625 91.9458 96.5432C91.9458 95.3239 91.4614 94.1546 90.5993 93.2924C89.7371 92.4303 88.5678 91.9459 87.3485 91.9459Z" fill="#FFE985"/>
<path d="M22.9865 82.7512H23.4002L42.5709 81.0042C44.671 80.795 46.6351 79.8698 48.1337 78.3838L89.5093 37.0082C91.1152 35.3116 91.9831 33.0476 91.9227 30.7123C91.8624 28.377 90.8788 26.1609 89.1875 24.5495L76.5909 11.9529C74.9469 10.4087 72.7926 9.5226 70.5378 9.46327C68.283 9.40393 66.0851 10.1755 64.3621 11.6311L22.9865 53.0067C21.5005 54.5053 20.5752 56.4694 20.366 58.5694L18.3892 77.7401C18.3273 78.4135 18.4146 79.0922 18.6451 79.7279C18.8755 80.3637 19.2434 80.9407 19.7224 81.418C20.152 81.8441 20.6614 82.1812 21.2216 82.4099C21.7817 82.6387 22.3815 82.7547 22.9865 82.7512ZM70.2007 18.3891L82.7513 30.9397L73.5567 39.9044L61.2359 27.5837L70.2007 18.3891ZM29.2848 59.351L55.1675 33.6521L67.5802 46.0648L41.8354 71.8096L28.0435 73.0969L29.2848 59.351Z" fill="#FFE985"/>
</svg>
