<svg width="137" height="137" viewBox="0 0 137 137" fill="none" xmlns="http://www.w3.org/2000/svg">
<path d="M63.0568 130.54C62.3987 130.539 61.7457 130.424 61.1271 130.199C59.9337 129.762 58.9216 128.938 58.2527 127.857C57.5838 126.777 57.2969 125.503 57.4379 124.24L61.8082 83.9996H28.3785C27.3474 84.0011 26.3354 83.7218 25.4511 83.1915C24.5668 82.6612 23.8437 81.9001 23.3594 80.9898C22.8751 80.0795 22.6479 79.0545 22.7022 78.0249C22.7565 76.9952 23.0903 75.9998 23.6677 75.1455L68.4487 8.17277C69.1569 7.12469 70.195 6.34325 71.3981 5.9525C72.6011 5.56176 73.9003 5.58411 75.0892 6.01602C76.2322 6.44035 77.2081 7.22144 77.8725 8.24366C78.537 9.26587 78.8546 10.4749 78.7784 11.6917L74.4081 52.2159H107.838C108.869 52.2143 109.881 52.4937 110.765 53.0239C111.649 53.5542 112.373 54.3154 112.857 55.2256C113.341 56.1359 113.568 57.1609 113.514 58.1906C113.46 59.2202 113.126 60.2156 112.549 61.0699L67.7676 128.043C67.247 128.813 66.5451 129.443 65.7237 129.879C64.9023 130.314 63.9865 130.541 63.0568 130.54Z" fill="#FFE985"/>
</svg>
