<svg width="150" height="150" viewBox="0 0 150 150" fill="none" xmlns="http://www.w3.org/2000/svg">
<path d="M136.715 74.5717C136.715 66.411 135.107 58.3301 131.984 50.7906C128.861 43.251 124.284 36.4004 118.513 30.6299C112.743 24.8594 105.892 20.282 98.3528 17.159C90.8132 14.036 82.7324 12.4286 74.5716 12.4286C58.0903 12.4286 42.2839 18.9758 30.6299 30.6299C18.9758 42.284 12.4286 58.0903 12.4286 74.5717C12.4286 91.0531 18.9758 106.859 30.6299 118.513C42.2839 130.168 58.0903 136.715 74.5716 136.715C91.053 136.715 106.859 130.168 118.513 118.513C130.167 106.859 136.715 91.0531 136.715 74.5717ZM123.851 68.3574H105.643C104.618 53.7422 99.6107 39.6868 91.1638 27.7158C99.8419 30.7979 107.493 36.2299 113.265 43.406C119.037 50.5821 122.701 59.2203 123.851 68.3574ZM56.4259 80.786H93.2146C91.6242 96.139 85.0803 110.557 74.5716 121.863C64.0699 110.605 57.6761 96.1309 56.4259 80.786ZM56.4259 68.3574C57.8731 53.0816 64.2409 38.6885 74.5716 27.343C85.1652 38.5668 91.7239 52.9959 93.2146 68.3574H56.4259ZM58.663 27.5294C50.1715 39.5667 45.0835 53.6713 43.9351 68.3574H25.2922C26.4661 59.1074 30.2177 50.374 36.1186 43.1545C42.0194 35.935 49.8316 30.5205 58.663 27.5294ZM25.2922 80.786H43.9351C44.9586 95.4596 50.012 109.566 58.5387 121.552C49.7391 118.546 41.9589 113.133 36.0819 105.926C30.2049 98.7203 26.4668 90.0103 25.2922 80.786ZM90.8531 121.49C99.3568 109.5 104.467 95.4378 105.643 80.786H123.975C122.8 89.9847 119.076 98.6713 113.222 105.864C107.369 113.057 99.6209 118.469 90.8531 121.49Z" fill="#FFE985"/>
</svg>
