<svg width="124" height="124" viewBox="0 0 124 124" fill="none" xmlns="http://www.w3.org/2000/svg">
<path d="M61.9028 108.33C61.2239 108.334 60.5509 108.204 59.9224 107.947C59.2939 107.69 58.7222 107.312 58.2402 106.834L18.1582 66.7004C13.1304 61.6201 10.3102 54.7613 10.3102 47.6137C10.3102 40.4662 13.1304 33.6073 18.1582 28.527C23.2252 23.4743 30.0891 20.6368 37.2449 20.6368C44.4007 20.6368 51.2645 23.4743 56.3316 28.527L61.9028 34.0983L67.4741 28.527C72.5411 23.4743 79.405 20.6368 86.5608 20.6368C93.7166 20.6368 100.58 23.4743 105.647 28.527C110.675 33.6073 113.495 40.4662 113.495 47.6137C113.495 54.7613 110.675 61.6201 105.647 66.7004L65.5654 106.834C65.0834 107.312 64.5117 107.69 63.8832 107.947C63.2547 108.204 62.5817 108.334 61.9028 108.33Z" fill="#FFE985"/>
</svg>
